# AST/ASF file generated using VICON BodyLanguage
# -----------------------------------------------
:version 1.10
:name VICON
:units
  mass 1.0
  length 0.45
  angle deg
:documentation
   .ast/.asf automatically generated from VICON data using
   VICON BodyBuilder and BodyLanguage model FoxedUp or BRILLIANT.MOD
:root
   order TX TY TZ RX RY RZ
   axis XYZ
   position 0 0 0  
   orientation 0 0 0 
:bonedata
  begin
     id 1 
     name lhipjoint
     direction 0.573633 -0.743009 0.344793 
     length 2.46257 
     axis 0 0 0  XYZ
  end
  begin
     id 2 
     name lfemur
     direction 0.34202 -0.939693 0  
     length 7.3842  
     axis 0 0 20  XYZ
    dof rx ry rz
    limits (-160.0 20.0)
           (-70.0 70.0)
           (-60.0 70.0)
  end
  begin
     id 3 
     name ltibia
     direction 0.34202 -0.939693 0   
     length 7.50407   
     axis 0 0 20   XYZ
    dof rx
    limits (-10.0 170.0)
  end
  begin
     id 4 
     name lfoot
     direction 0.110749 -0.304281 0.946123   
     length 1.95925   
     axis -90 7.62852e-016 20   XYZ
    dof rx rz
    limits (-45.0 90.0)
           (-70.0 20.0)
  end
  begin
     id 5 
     name ltoes
     direction 1.53554e-011 -4.21843e-011 1   
     length 0.978318   
     axis -90 7.62852e-016 20   XYZ
    dof rx
    limits (-90.0 20.0)
  end
  begin
     id 6 
     name rhipjoint
     direction -0.488109 -0.791693 0.367385   
     length 2.31113  
     axis 0 0 0  XYZ 
  end
  begin
     id 7 
     name rfemur
     direction -0.34202 -0.939693 0   
     length 7.40965   
     axis 0 0 -20   XYZ
    dof rx ry rz
    limits (-160.0 20.0)
           (-70.0 70.0)
           (-70.0 60.0)
  end
  begin
     id 8 
     name rtibia
     direction -0.34202 -0.939693 0   
     length 7.55548   
     axis 0 0 -20   XYZ
    dof rx
    limits (-10.0 170.0)
 end
 begin
     id 9 
     name rfoot
     direction -0.127594 -0.350561 0.927808   
     length 2.07199  
     axis -90 -7.62852e-016 -20   XYZ
    dof rx rz
    limits (-45.0 90.0)
           (-20.0 70.0)
  end
  begin
     id 10 
     name rtoes
     direction -1.53542e-011 -4.21909e-011 1   
     length 1.02667   
     axis -90 -7.62852e-016 -20   XYZ
    dof rx
    limits (-90.0 20.0)
  end
  begin
     id 11 
     name lowerback
     direction -0.0103342 0.997298 -0.0727278   
     length 2.02836   
     axis 0 0 0   XYZ
    dof rx ry rz
    limits (-20.0 45.0)
           (-30.0 30.0)
           (-30.0 30.0)
  end
  begin
     id 12 
     name upperback
     direction 0.0171146 0.999786 -0.011606   
     length 2.03179   
     axis 0 0 0   XYZ
    dof rx ry rz
    limits (-20.0 45.0)
           (-30.0 30.0)
           (-30.0 30.0)
  end
  begin
     id 13 
     name thorax
     direction 0.0216927 0.999513 0.0224343   
     length 2.03882   
     axis 0 0 0   XYZ
    dof rx ry rz
    limits (-20.0 45.0)
           (-30.0 30.0)
           (-30.0 30.0)
  end
  begin
     id 14 
     name lowerneck
     direction 0.000989287 0.993907 0.110221   
     length 1.75428   
     axis 0 0 0   XYZ
    dof rx ry rz
    limits (-20.0 45.0)
           (-30.0 30.0)
           (-30.0 30.0)
  end
  begin
     id 15 
     name upperneck
     direction -0.0172474 0.994813 -0.100253   
     length 1.77058   
     axis 0 0 0   XYZ
    dof rx ry rz
    limits (-20.0 45.0)
           (-30.0 30.0)
           (-30.0 30.0)
  end
  begin
     id 16
     name head
     direction -0.00486455 0.99894 -0.0457663  
     length 1.77427  
     axis 0 0 0   XYZ
    dof rx ry rz
    limits (-20.0 45.0)
           (-30.0 30.0)
           (-30.0 30.0)
  end
  begin
     id 17 
     name lclavicle
     direction 0.927314 0.333734 -0.169441  
     length 3.97584  
     axis 0 0 0   XYZ
    dof ry rz
    limits (-20.0 10.0)
           (0.0 20.0)
  end
  begin
     id 18 
     name lhumerus
     direction 1 -4.48965e-011 -3.25313e-028   
     length 4.76468   
     axis 180 -30 -90   XYZ
    dof rx ry rz
    limits (-60.0 90.0)
           (-90.0 90.0)
           (-90.0 90.0)
  end
  begin
     id 19
     name lradius
     direction 1 -4.48969e-011 -2.8465e-028   
     length 3.52712   
     axis -180 -30 -90   XYZ
    dof rx
    limits (-10.0 170.0)
  end
  begin
     id 20
     name lwrist
     direction 1 -4.4896e-011 -7.78665e-028   
     length 1.76356   
     axis 1.91374e-015 90 90   XYZ
    dof ry
    limits (-180.0 0.0)
 end
  begin
     id 21 
     name lhand
     direction 1 -4.48959e-011 -1.55733e-027   
     length 0.859564   
     axis 9.9371e-016 90 90   XYZ
    dof rx rz
    limits (-90.0 90.0)
           (-45.0 45.0)
  end
  begin
     id 22 
     name lfingers
     direction 1 -4.48965e-011 -3.11466e-027   
     length 0.693002   
     axis 1.98742e-015 90 90   XYZ
    dof rx
    limits (0.0 90.0)
  end
  begin
     id 23
     name lthumb
     direction 0.707107 -6.34948e-011 0.707107   
     length 0.995017   
     axis -90 45 2.85299e-015   XYZ
    dof rx rz
    limits (-45.0 45.0)
           (-45.0 45.0)
  end
  begin
     id 24 
     name rclavicle
     direction -0.899388 0.348209 -0.264294   
     length 3.68366  
     axis 0 0 0   XYZ 
    dof ry rz
    limits (-10.0 20.0)
           (-20.0 0.0)
  end
  begin
     id 25 
     name rhumerus
     direction -1 -4.48965e-011 -3.01536e-027  
     length 4.90577   
     axis 180 30 90   XYZ
    dof rx ry rz
    limits (-90.0 60.0)
           (-90.0 90.0)
           (-90.0 90.0)
  end
  begin
     id 26 
     name rradius
     direction -1 -4.48966e-011 3.93291e-027   
     length 3.42692   
     axis -180 30 90   XYZ
    dof rx
    limits (-10.0 170.0)
  end
  begin
     id 27 
     name rwrist
     direction -1 -4.48969e-011 -7.78665e-028   
     length 1.71346   
     axis 1.91374e-015 -90 -90   XYZ
    dof ry
    limits (-180.0 0.0)
  end
  begin
     id 28
     name rhand
     direction -1 -4.48967e-011 -1.55733e-027   
     length 0.740957   
     axis 9.9371e-016 -90 -90   XYZ
    dof rx rz
    limits (-90.0 90.0)
           (-45.0 45.0)
  end
  begin
     id 29
     name rfingers
     direction -1 -4.48949e-011 -3.11466e-027   
     length 0.597378   
     axis 1.98742e-015 -90 -90   XYZ
    dof rx
    limits (0.0 90.0)
  end
  begin
     id 30
     name rthumb
     direction -0.707107 -6.34931e-011 0.707107   
     length 0.857719   
     axis -90 -45 -2.85299e-015   XYZ
    dof rx rz
    limits (-45.0 45.0)
           (-45.0 45.0)
  end
:hierarchy
  begin
    root lhipjoint rhipjoint lowerback
    lhipjoint lfemur
    lfemur ltibia
    ltibia lfoot
    lfoot ltoes
    rhipjoint rfemur
    rfemur rtibia
    rtibia rfoot
    rfoot rtoes
    lowerback upperback
    upperback thorax
    thorax lowerneck lclavicle rclavicle
    lowerneck upperneck
    upperneck head
    lclavicle lhumerus
    lhumerus lradius
    lradius lwrist
    lwrist lhand lthumb
    lhand lfingers
    rclavicle rhumerus
    rhumerus rradius
    rradius rwrist
    rwrist rhand rthumb
    rhand rfingers
  end

#!OML:ASF E:\I on waltz\AllaLogoMonkeySwing\Project 1\Capture day 1\Session 1\Subject1.ASF
:FULLY-SPECIFIED
:DEGREES
1
root 1.79451 17.8702 4.75237 0.908928 -3.56449 -1.74893
lowerback 4.83203 -1.17281 -2.9591
upperback -0.533155 -1.66157 2.50783
thorax -3.10318 -0.756676 4.38203
lowerneck -5.50248 -11.5758 -10.3246
upperneck 4.48662 -15.3268 9.43277
head 3.74612 -7.47794 3.55414
rclavicle -1.3828e-014 8.74653e-015
rhumerus -26.2967 -17.151 -81.215
rradius 21.6407
rwrist 7.22231
rhand -5.0512 -36.5918
rfingers 7.12502
rthumb 20.7442 -65.503
lclavicle -1.3828e-014 8.74653e-015
lhumerus -38.3172 29.456 78.7474
lradius 33.1295
lwrist -6.20888
lhand -8.11383 -11.6146
lfingers 7.12502
lthumb 17.7993 17.5908
rfemur -3.19736 1.82703 20.3576
rtibia 17.2978
rfoot -12.7658 -6.46894
rtoes 9.17393
lfemur -0.354608 1.17508 -18.4551
ltibia 13.4605
lfoot -14.0977 2.24064
ltoes -30.1762
2
root 1.7978 17.8684 4.75533 0.92652 -3.60931 -1.65695
lowerback 4.87369 -1.15772 -3.02466
upperback -0.537499 -1.64693 2.48284
thorax -3.1315 -0.747685 4.3935
lowerneck -9.25061 -12.3204 -9.07454
upperneck 8.84833 -16.0688 6.21571
head 5.39032 -7.82618 2.00841
rclavicle 9.33046e-015 -9.14409e-015
rhumerus -26.4025 -17.5592 -80.9547
rradius 21.4369
rwrist 7.47654
rhand -4.91393 -36.638
rfingers 7.12502
rthumb 20.8761 -65.5348
lclavicle 9.33046e-015 -9.14409e-015
lhumerus -38.3871 29.6093 78.7092
lradius 32.9933
lwrist -6.36364
lhand -7.97708 -11.8696
lfingers 7.12502
lthumb 17.9309 17.3238
rfemur -3.29129 1.74975 20.2267
rtibia 17.4397
rfoot -13.0366 -6.4146
rtoes 10.7448
lfemur -0.36236 1.2099 -18.5756
ltibia 13.4635
lfoot -14.0519 2.29016
ltoes -30.2987
3
root 1.80037 17.8668 4.75826 0.942193 -3.65816 -1.65328
lowerback 4.88629 -1.1632 -3.00921
upperback -0.516686 -1.65444 2.45637
thorax -3.11746 -0.752575 4.35756
lowerneck -10.9143 -12.6291 -8.63231
upperneck 10.3786 -16.3549 5.18195
head 6.03898 -7.96307 1.4576
rclavicle -1.881e-014 1.11319e-014
rhumerus -26.4788 -18.0726 -80.7344
rradius 21.1686
rwrist 7.99518
rhand -4.84075 -36.689
rfingers 7.12502
rthumb 20.9464 -65.578
lclavicle -1.881e-014 1.11319e-014
lhumerus -38.393 29.705 78.6348
lradius 32.888
lwrist -6.30589
lhand -7.71585 -11.9854
lfingers 7.12502
lthumb 18.1822 17.1848
rfemur -3.33321 1.72484 20.2095
rtibia 17.4975
rfoot -13.2796 -6.39307
rtoes 12.5114
lfemur -0.418731 1.25421 -18.5897
ltibia 13.5797
lfoot -14.1024 2.32171
ltoes -30.5129
4
root 1.80142 17.8646 4.76058 0.928715 -3.68586 -1.68503
lowerback 4.92379 -1.16373 -2.97137
upperback -0.481821 -1.65441 2.4336
thorax -3.1041 -0.754262 4.31274
lowerneck -3.59619 -10.9633 -10.7347
upperneck 2.31482 -14.5898 10.7323
head 2.84747 -7.1582 4.22965
rclavicle 2.37299e-015 -1.59028e-015
rhumerus -26.5459 -18.5412 -80.5501
rradius 20.8363
rwrist 8.31208
rhand -5.02399 -36.7974
rfingers 7.12502
rthumb 20.7704 -65.7058
lclavicle 2.37299e-015 -1.59028e-015
lhumerus -38.3835 29.783 78.5613
lradius 32.7426
lwrist -6.38665
lhand -7.55473 -11.4559
lfingers 7.12502
lthumb 18.3372 17.6998
rfemur -3.32409 1.75795 20.2473
rtibia 17.5355
rfoot -13.5009 -6.39008
rtoes 14.4404
lfemur -0.457776 1.30115 -18.5529
ltibia 13.7188
lfoot -14.1732 2.33408
ltoes -30.5816
5
root 1.80325 17.8622 4.76184 0.907305 -3.70896 -1.77961
lowerback 4.98777 -1.14966 -2.86092
upperback -0.444477 -1.63016 2.4388
thorax -3.10653 -0.744536 4.25503
lowerneck -3.337 -10.9221 -10.7222
upperneck 1.90082 -14.5339 10.8214
head 2.6825 -7.13982 4.285
rclavicle -1.36416e-014 2.28602e-014
rhumerus -26.6085 -18.8639 -80.3817
rradius 20.436
rwrist 8.09757
rhand -5.64809 -36.465
rfingers 7.12502
rthumb 20.1706 -65.4378
lclavicle -1.36416e-014 2.28602e-014
lhumerus -38.3766 29.8328 78.5344
lradius 32.5193
lwrist -6.59874
lhand -7.6354 -11.1708
lfingers 7.12502
lthumb 18.2596 17.9921
rfemur -3.28544 1.8019 20.3468
rtibia 17.5262
rfoot -13.6702 -6.37039
rtoes 16.1357
lfemur -0.521928 1.32001 -18.4542
ltibia 13.919
lfoot -14.6003 2.37169
ltoes -29.3192
6
root 1.80598 17.8599 4.76183 0.895605 -3.73119 -1.97671
lowerback 5.05223 -1.13156 -2.63476
upperback -0.403231 -1.59235 2.4767
thorax -3.10847 -0.729787 4.16479
lowerneck -4.71074 -11.3412 -10.4835
upperneck 3.18316 -15.0321 10.1112
head 3.2641 -7.34819 3.88519
rclavicle -6.39838e-015 1.35174e-014
rhumerus -26.7012 -19.2563 -80.1426
rradius 20.0038
rwrist 7.74249
rhand -6.2651 -35.6852
rfingers 7.12502
rthumb 19.5775 -64.7195
lclavicle -6.39838e-015 1.35174e-014
lhumerus -38.3709 29.8205 78.534
lradius 32.2884
lwrist -6.74985
lhand -7.78832 -11.3859
lfingers 7.12502
lthumb 18.1125 17.7908
rfemur -3.25198 1.83817 20.5566
rtibia 17.5078
rfoot -14.0646 -6.35554
rtoes 19.5762
lfemur -0.603071 1.27942 -18.2526
ltibia 14.1247
lfoot -15.7174 2.44386
ltoes -25.439
7
root 1.80742 17.858 4.7606 0.858004 -3.75287 -2.09571
lowerback 5.12047 -1.12336 -2.52511
upperback -0.331306 -1.57561 2.49342
thorax -3.07629 -0.724897 4.11943
lowerneck -4.75604 -11.3594 -10.462
upperneck 3.05876 -15.0511 10.2005
head 3.24173 -7.3546 3.90742
rclavicle 1.81639e-014 -4.77083e-015
rhumerus -26.7916 -19.9731 -79.7887
rradius 19.6738
rwrist 7.87996
rhand -5.86431 -35.4798
rfingers 7.12502
rthumb 19.9628 -64.4744
lclavicle 1.81639e-014 -4.77083e-015
lhumerus -38.3042 29.8628 78.5131
lradius 32.095
lwrist -6.88365
lhand -7.85875 -11.6065
lfingers 7.12502
lthumb 18.0447 17.5764
rfemur -3.19724 1.949 20.6972
rtibia 17.4933
rfoot -14.0701 -6.43511
rtoes 20.0013
lfemur -0.665965 1.19809 -18.1308
ltibia 14.3241
lfoot -15.7031 2.54282
ltoes -25.791
8
root 1.81001 17.8561 4.76027 0.803602 -3.76945 -2.08911
lowerback 5.18206 -1.12307 -2.54192
upperback -0.243919 -1.57843 2.46892
thorax -3.02046 -0.728678 4.10362
lowerneck -4.81007 -11.3568 -10.4355
upperneck 2.90841 -15.0451 10.365
head 3.21637 -7.34663 3.95335
rclavicle -2.41026e-014 -2.10712e-014
rhumerus -26.9203 -20.9318 -79.3494
rradius 19.4826
rwrist 8.43474
rhand -4.44241 -35.9916
rfingers 7.12502
rthumb 21.3291 -64.8378
lclavicle -2.41026e-014 -2.10712e-014
lhumerus -38.2179 29.9551 78.4711
lradius 31.9601
lwrist -6.99777
lhand -7.89221 -11.8346
lfingers 7.12502
lthumb 18.0126 17.3513
rfemur -3.13266 2.02908 20.689
rtibia 17.4843
rfoot -14.0621 -6.493
rtoes 20.1274
lfemur -0.707196 1.15981 -18.1493
ltibia 14.5165
lfoot -15.5811 2.60022
ltoes -26.5304
9
root 1.81347 17.8539 4.7613 0.781619 -3.76589 -2.09901
lowerback 5.22634 -1.12287 -2.52521
upperback -0.187227 -1.57863 2.45169
thorax -2.98756 -0.730677 4.07635
lowerneck -4.78496 -11.3529 -10.4317
upperneck 2.70623 -15.0374 10.508
head 3.16248 -7.3417 4.00249
rclavicle -3.926e-015 2.44505e-014
rhumerus -27.1661 -21.9502 -78.8379
rradius 19.3681
rwrist 9.06998
rhand -2.76147 -36.7058
rfingers 7.12502
rthumb 22.9429 -65.3606
lclavicle -3.926e-015 2.44505e-014
lhumerus -38.225 30.0102 78.4057
lradius 31.8987
lwrist -7.11078
lhand -7.89264 -12.08
lfingers 7.12502
lthumb 18.0121 17.106
rfemur -3.10556 1.99736 20.6829
rtibia 17.4919
rfoot -14.0471 -6.49074
rtoes 19.756
lfemur -0.759875 1.15215 -18.1527
ltibia 14.6828
lfoot -15.4975 2.62558
ltoes -26.9834
10
root 1.81554 17.8526 4.76236 0.771099 -3.77997 -2.12094
lowerback 5.26026 -1.09801 -2.51325
upperback -0.146602 -1.54536 2.45433
thorax -2.96778 -0.715254 4.07009
lowerneck -4.79285 -11.385 -10.4402
upperneck 2.59131 -15.0732 10.5432
head 3.13644 -7.35937 4.01354
rclavicle -3.3048e-015 1.2921e-014
rhumerus -27.4454 -22.9828 -78.2652
rradius 19.2543
rwrist 9.6855
rhand -1.25699 -37.3014
rfingers 7.12502
rthumb 24.3859 -65.7697
lclavicle -3.3048e-015 1.2921e-014
lhumerus -38.2583 29.9709 78.4032
lradius 31.9058
lwrist -7.11935
lhand -7.85485 -12.1455
lfingers 7.12502
lthumb 18.0485 17.0371
rfemur -3.09528 1.9769 20.6949
rtibia 17.5034
rfoot -14.032 -6.45419
rtoes 19.2423
lfemur -0.819465 1.08951 -18.1428
ltibia 14.8315
lfoot -15.4868 2.70118
ltoes -27.2358
11
root 1.81741 17.8523 4.7636 0.74892 -3.80872 -2.10866
lowerback 5.29973 -1.05917 -2.53672
upperback -0.116527 -1.4957 2.45565
thorax -2.96262 -0.690669 4.08167
lowerneck -4.83131 -11.4157 -10.497
upperneck 2.571 -15.1089 10.5899
head 3.1483 -7.37535 4.03036
rclavicle 1.32937e-014 1.05356e-014
rhumerus -27.7111 -23.8902 -77.7152
rradius 19.0857
rwrist 10.2662
rhand -0.230659 -37.636
rfingers 7.12502
rthumb 25.3694 -65.9683
lclavicle 1.32937e-014 1.05356e-014
lhumerus -38.2632 29.823 78.4888
lradius 31.9642
lwrist -6.97107
lhand -7.83693 -12.0111
lfingers 7.12502
lthumb 18.0657 17.1699
rfemur -3.07316 1.98112 20.67
rtibia 17.5109
rfoot -14.0368 -6.38871
rtoes 18.8547
lfemur -0.862424 0.994169 -18.1751
ltibia 14.9703
lfoot -15.5185 2.79957
ltoes -27.049
